<svg width="16" height="16" viewBox="0 0 16 16" fill="none" xmlns="http://www.w3.org/2000/svg">
<path d="M10.0003 13.3335C9.91255 13.334 9.82557 13.3171 9.74435 13.284C9.66312 13.2508 9.58924 13.2019 9.52695 13.1401L4.86028 8.47346C4.7978 8.41148 4.7482 8.33775 4.71436 8.25651C4.68051 8.17527 4.66309 8.08813 4.66309 8.00012C4.66309 7.91212 4.68051 7.82498 4.71436 7.74374C4.7482 7.6625 4.7978 7.58877 4.86028 7.52679L9.52695 2.86012C9.58911 2.79796 9.6629 2.74866 9.74412 2.71502C9.82533 2.68138 9.91238 2.66406 10.0003 2.66406C10.0882 2.66406 10.1752 2.68138 10.2565 2.71502C10.3377 2.74866 10.4115 2.79796 10.4736 2.86012C10.5358 2.92228 10.5851 2.99608 10.6187 3.07729C10.6524 3.15851 10.6697 3.24555 10.6697 3.33346C10.6697 3.42136 10.6524 3.50841 10.6187 3.58962C10.5851 3.67084 10.5358 3.74463 10.4736 3.80679L6.27362 8.00012L10.4736 12.1935C10.5361 12.2554 10.5857 12.3292 10.6195 12.4104C10.6534 12.4916 10.6708 12.5788 10.6708 12.6668C10.6708 12.7548 10.6534 12.8419 10.6195 12.9232C10.5857 13.0044 10.5361 13.0781 10.4736 13.1401C10.4113 13.2019 10.3374 13.2508 10.2562 13.284C10.175 13.3171 10.088 13.334 10.0003 13.3335Z" fill="#2B005C"/>
</svg>
